# xmcd
#
# Track frame offsets: 
#        150
#        20894
#        37810
#        58364
#        75694
#        95325
#        108942
#        128509
#        144473
#        161231
#        174854
#
# Disc length: 2545 seconds
#
# Revision: 0
# Processed by: cddbd v1.5.2PL0 Copyright (c) Steve Scherf et al.
# Submitted via: ExactAudioCopy v1.0b1
#
DISCID=8a09ef0b
DTITLE=Lumo - Helpompi hengitt‰‰
DYEAR=2006
DGENRE=Pop
TTITLE0=Jos huomenna kaikki olis toisin
TTITLE1=Varo rakkautta
TTITLE2=Siivet selk‰‰n saan
TTITLE3=Kauniimpi kuin koskaan
TTITLE4=Sua takaisin en saa
TTITLE5=Miss‰ te ootte
TTITLE6=Hellyydenkipe‰
TTITLE7=Anteeksi
TTITLE8=Aina
TTITLE9=Mihin katosi mies
TTITLE10=Varastin palasen juustoa kuusta
EXTD=
EXTT0=
EXTT1=
EXTT2=
EXTT3=
EXTT4=
EXTT5=
EXTT6=
EXTT7=
EXTT8=
EXTT9=
EXTT10=
PLAYORDER=
